<svg xmlns="http://www.w3.org/2000/svg" width="48" height="48" viewBox="0 0 48 48">
  <rect width="48" height="48" rx="11" fill="#0f6e70" />
  <g transform="translate(2.4 2.4) scale(0.9)">
    <g fill="none" stroke="#f5f3ef" stroke-width="3" stroke-linecap="round" stroke-linejoin="round">
      <path d="M9 17.5a4 4 0 0 1 4-4h20a4 4 0 0 1 4 4v15a4 4 0 0 1-4 4H13a4 4 0 0 1-4-4Z" />
      <path d="M9 17.5 30.2 10.6a2.6 2.6 0 0 1 3.4 2.4v.5" />
      <path d="M37 22.5h-7.5a3 3 0 0 0 0 6H37" />
      <circle cx="30.5" cy="25.5" r="1" fill="#f5f3ef" />
    </g>
  </g>
</svg>
